I:TorrentsCSI New York [6x08] HDTV - AC3 - Spanish.avi
   General
      Complete name : I:TorrentsCSI New York [6x08] HDTV - AC3 - Spanish.avi
      Format : AVI
      Format/Info : Audio Video Interleave
      File size : 434 MiB
      Duration : 41mn 17s
      Overall bit rate : 1 470 Kbps
      Writing application : VirtualDubMod 1.5.10.2 (build 2540/release)
      Writing library : VirtualDubMod build 2540/release
   Video #0
      ID : 0
      Format : MPEG-4 Visual
      Format profile : AdvancedSimple@L5
      Format settings, BVOP : Yes
      Format settings, QPel : No
      Format settings, GMC : No warppoints
      Format settings, Matrix : Default (H.263)
      Codec ID : XVID
      Codec ID/Hint : XviD
      Duration : 41mn 17s
      Bit rate : 1 012 Kbps
      Width : 624 pixels
      Height : 352 pixels
      Display aspect ratio : 16:9
      Frame rate : 25.000 fps
      Original frame rate : 23.976 fps
      Resolution : 24 bits
      Colorimetry : 4:2:0
      Scan type : Progressive
      Bits/(Pixel*Frame) : 0.184
      Stream size : 299 MiB (69%)
      Writing library : XviD 1.2.1 (UTC 2008-12-04)
   Audio #1
      ID : 1
      Format : AC-3
      Format/Info : Audio Coding 3
      Codec ID : 2000
      Duration : 41mn 17s
      Bit rate mode : Constant
      Bit rate : 448 Kbps
      Channel(s) : 2 channels
      Channel positions : L R
      Sampling rate : 48.0 KHz
      Stream size : 132 MiB (30%)
      Alignment : Split accross interleaves
      Interleave, duration : 40 ms (1.00 video frame)
      Interleave, preload duration : 500 ms